HIERARCHY
ROOT newVegas:Hips
{
	OFFSET 0.000000 96.479958 0.000000
	CHANNELS 6 Xposition Yposition Zposition Xrotation Yrotation Zrotation
	JOINT newVegas:Pelvis
	{
		OFFSET 0.000000 0.000000 0.000000
		CHANNELS 3 Xrotation Yrotation Zrotation
		JOINT newVegas:LeftUpLeg
		{
			OFFSET 18.735201 -5.666702 -4.541200
			CHANNELS 3 Xrotation Yrotation Zrotation
			JOINT newVegas:LeftLeg
			{
				OFFSET -0.021200 -31.938179 0.493100
				CHANNELS 3 Xrotation Yrotation Zrotation
				JOINT newVegas:LeftFoot
				{
					OFFSET 0.021200 -31.938179 -4.336299
					CHANNELS 3 Xrotation Yrotation Zrotation
					JOINT newVegas:LeftToeBase
					{
						OFFSET 0.943001 -26.722000 15.023500
						CHANNELS 3 Xrotation Yrotation Zrotation
						End Site
						{
							OFFSET 0.000000 30.670183 0.000000
						}
					}
				}
				JOINT newVegas:Left_PantLeg
				{
					OFFSET 0.663870 -9.044666 -1.108900
					CHANNELS 3 Xrotation Yrotation Zrotation
					End Site
					{
						OFFSET 1.415995 20.635357 0.000000
					}
				}
			}
		}
		JOINT newVegas:RightUpLeg
		{
			OFFSET -18.735201 -5.666702 -4.541200
			CHANNELS 3 Xrotation Yrotation Zrotation
			JOINT newVegas:RightLeg
			{
				OFFSET 0.018946 -31.938133 0.493100
				CHANNELS 3 Xrotation Yrotation Zrotation
				JOINT newVegas:RightFoot
				{
					OFFSET -0.018946 -31.938126 -4.336299
					CHANNELS 3 Xrotation Yrotation Zrotation
					JOINT newVegas:RightToeBase
					{
						OFFSET -0.943001 -26.722004 15.023500
						CHANNELS 3 Xrotation Yrotation Zrotation
						End Site
						{
							OFFSET 0.000000 30.670187 0.000000
						}
					}
				}
				JOINT newVegas:Right_PantLeg
				{
					OFFSET -0.661674 -9.044716 -1.108900
					CHANNELS 3 Xrotation Yrotation Zrotation
					End Site
					{
						OFFSET -1.415958 20.635269 0.000000
					}
				}
			}
		}
	}
	JOINT newVegas:Spine
	{
		OFFSET 0.000000 10.199997 -0.299500
		CHANNELS 3 Xrotation Yrotation Zrotation
		JOINT newVegas:Spine1
		{
			OFFSET 0.000000 11.900002 -1.516600
			CHANNELS 3 Xrotation Yrotation Zrotation
			JOINT newVegas:Spine2
			{
				OFFSET 0.000000 13.600006 -2.842500
				CHANNELS 3 Xrotation Yrotation Zrotation
				JOINT newVegas:Neck
				{
					OFFSET 0.000000 9.624100 -2.890100
					CHANNELS 3 Xrotation Yrotation Zrotation
					JOINT newVegas:Head
					{
						OFFSET 0.000000 14.068802 -1.351900
						CHANNELS 3 Xrotation Yrotation Zrotation
						JOINT newVegas:Hair_Back
						{
							OFFSET 0.000000 3.231903 -17.524799
							CHANNELS 3 Xrotation Yrotation Zrotation
							End Site
							{
								OFFSET 0.000000 19.849884 0.000000
							}
						}
						JOINT newVegas:Hair_Front
						{
							OFFSET 0.000000 31.260406 4.573800
							CHANNELS 3 Xrotation Yrotation Zrotation
							JOINT newVegas:Hair_Front1
							{
								OFFSET 0.000000 2.284103 11.993300
								CHANNELS 3 Xrotation Yrotation Zrotation
								JOINT newVegas:Hair_Front2
								{
									OFFSET 0.000000 2.284103 11.993300
									CHANNELS 3 Xrotation Yrotation Zrotation
									End Site
									{
										OFFSET 0.000000 12.208862 0.000000
									}
								}
							}
						}
						JOINT newVegas:Jowel
						{
							OFFSET 0.000000 -7.458206 6.864100
							CHANNELS 3 Xrotation Yrotation Zrotation
							End Site
							{
								OFFSET 0.000000 19.849884 0.000000
							}
						}
					}
				}
				JOINT newVegas:LeftShoulder
				{
					OFFSET 15.263000 10.923401 -0.547700
					CHANNELS 3 Xrotation Yrotation Zrotation
					JOINT newVegas:LeftArm
					{
						OFFSET 25.438599 -2.830597 -13.032500
						CHANNELS 3 Xrotation Yrotation Zrotation
						JOINT newVegas:LeftForeArm
						{
							OFFSET 29.960503 0.000000 0.000000
							CHANNELS 3 Xrotation Yrotation Zrotation
							JOINT newVegas:LeftHand
							{
								OFFSET 27.849251 0.000000 0.000000
								CHANNELS 3 Xrotation Yrotation Zrotation
								JOINT newVegas:LeftHandThumb1
								{
									OFFSET 4.487587 -3.305161 6.305391
									CHANNELS 3 Xrotation Yrotation Zrotation
									JOINT newVegas:LeftHandThumb2
									{
										OFFSET 5.480453 -3.164139 3.164143
										CHANNELS 3 Xrotation Yrotation Zrotation
										JOINT newVegas:LeftHandThumb3
										{
											OFFSET 5.159721 -2.978973 2.978967
											CHANNELS 3 Xrotation Yrotation Zrotation
											End Site
											{
												OFFSET 2.494507 5.926697 1.738678
											}
										}
									}
								}
								JOINT newVegas:LeftHandIndex1
								{
									OFFSET 18.578728 -0.527832 5.208049
									CHANNELS 3 Xrotation Yrotation Zrotation
									JOINT newVegas:LeftHandIndex2
									{
										OFFSET 3.192009 0.000000 0.000000
										CHANNELS 3 Xrotation Yrotation Zrotation
										JOINT newVegas:LeftHandIndex3
										{
											OFFSET 3.835129 0.000000 0.000000
											CHANNELS 3 Xrotation Yrotation Zrotation
											End Site
											{
												OFFSET -0.034599 3.816971 0.371180
											}
										}
									}
								}
								JOINT newVegas:LeftHandMiddle1
								{
									OFFSET 18.476105 0.000000 0.000000
									CHANNELS 3 Xrotation Yrotation Zrotation
									JOINT newVegas:LeftHandMiddle2
									{
										OFFSET 3.324875 0.000000 0.000000
										CHANNELS 3 Xrotation Yrotation Zrotation
										JOINT newVegas:LeftHandMiddle3
										{
											OFFSET 4.596550 0.000000 0.000000
											CHANNELS 3 Xrotation Yrotation Zrotation
											End Site
											{
												OFFSET 0.057701 4.578827 0.399218
											}
										}
									}
								}
								JOINT newVegas:LeftHandRing1
								{
									OFFSET 17.732719 0.121887 -4.201567
									CHANNELS 3 Xrotation Yrotation Zrotation
									JOINT newVegas:LeftHandRing2
									{
										OFFSET 2.733170 0.000000 0.000000
										CHANNELS 3 Xrotation Yrotation Zrotation
										JOINT newVegas:LeftHandRing3
										{
											OFFSET 3.178268 0.000000 0.000000
											CHANNELS 3 Xrotation Yrotation Zrotation
											End Site
											{
												OFFSET 0.119102 3.170624 0.185394
											}
										}
									}
								}
								JOINT newVegas:LeftHandPinky1
								{
									OFFSET 15.989624 -0.606689 -7.535461
									CHANNELS 3 Xrotation Yrotation Zrotation
									JOINT newVegas:LeftHandPinky2
									{
										OFFSET 2.538986 0.000000 0.000000
										CHANNELS 3 Xrotation Yrotation Zrotation
										JOINT newVegas:LeftHandPinky3
										{
											OFFSET 2.593102 0.000000 0.000000
											CHANNELS 3 Xrotation Yrotation Zrotation
											End Site
											{
												OFFSET -0.150902 2.584198 0.152708
											}
										}
									}
								}
							}
							JOINT newVegas:Left_Sleeve
							{
								OFFSET 0.267448 -0.649796 0.577675
								CHANNELS 3 Xrotation Yrotation Zrotation
								End Site
								{
									OFFSET 0.000000 15.991241 0.000000
								}
							}
							JOINT newVegas:Left_CapeC
							{
								OFFSET 15.715958 -8.608795 -6.935905
								CHANNELS 3 Xrotation Yrotation Zrotation
								JOINT newVegas:Left_CapeC1
								{
									OFFSET 0.000000 -8.688499 0.000000
									CHANNELS 3 Xrotation Yrotation Zrotation
									End Site
									{
										OFFSET 0.000000 8.688499 0.000000
									}
								}
							}
						}
						JOINT newVegas:Left_CapeB
						{
							OFFSET 26.118385 -8.608795 -7.079235
							CHANNELS 3 Xrotation Yrotation Zrotation
							JOINT newVegas:Left_CapeB1
							{
								OFFSET 0.000000 -8.688499 0.000000
								CHANNELS 3 Xrotation Yrotation Zrotation
								End Site
								{
									OFFSET 0.000000 8.688499 0.000000
								}
							}
						}
						JOINT newVegas:Left_CapeA
						{
							OFFSET 5.115639 -8.608795 -10.395809
							CHANNELS 3 Xrotation Yrotation Zrotation
							JOINT newVegas:Left_CapeA1
							{
								OFFSET 0.000000 -8.688499 0.000000
								CHANNELS 3 Xrotation Yrotation Zrotation
								End Site
								{
									OFFSET 0.000000 8.688499 0.000000
								}
							}
						}
					}
				}
				JOINT newVegas:RightShoulder
				{
					OFFSET -15.263000 10.923401 -0.547700
					CHANNELS 3 Xrotation Yrotation Zrotation
					JOINT newVegas:RightArm
					{
						OFFSET -25.438599 -2.830597 -13.032500
						CHANNELS 3 Xrotation Yrotation Zrotation
						JOINT newVegas:RightForeArm
						{
							OFFSET -29.960503 0.000000 0.000000
							CHANNELS 3 Xrotation Yrotation Zrotation
							JOINT newVegas:RightHand
							{
								OFFSET -27.849251 0.000000 0.000000
								CHANNELS 3 Xrotation Yrotation Zrotation
								JOINT newVegas:RightHandThumb1
								{
									OFFSET -4.487587 -3.305161 6.305391
									CHANNELS 3 Xrotation Yrotation Zrotation
									JOINT newVegas:RightHandThumb2
									{
										OFFSET -5.480453 -3.164139 3.164143
										CHANNELS 3 Xrotation Yrotation Zrotation
										JOINT newVegas:RightHandThumb3
										{
											OFFSET -5.159721 -2.978973 2.978967
											CHANNELS 3 Xrotation Yrotation Zrotation
											End Site
											{
												OFFSET -2.494507 5.926697 1.738678
											}
										}
									}
								}
								JOINT newVegas:RightHandIndex1
								{
									OFFSET -18.578728 -0.527832 5.208049
									CHANNELS 3 Xrotation Yrotation Zrotation
									JOINT newVegas:RightHandIndex2
									{
										OFFSET -3.192009 0.000000 0.000000
										CHANNELS 3 Xrotation Yrotation Zrotation
										JOINT newVegas:RightHandIndex3
										{
											OFFSET -3.835129 0.000000 0.000000
											CHANNELS 3 Xrotation Yrotation Zrotation
											End Site
											{
												OFFSET 0.034599 3.816971 0.371180
											}
										}
									}
								}
								JOINT newVegas:RightHandMiddle1
								{
									OFFSET -18.476105 0.000000 0.000000
									CHANNELS 3 Xrotation Yrotation Zrotation
									JOINT newVegas:RightHandMiddle2
									{
										OFFSET -3.324875 0.000000 0.000000
										CHANNELS 3 Xrotation Yrotation Zrotation
										JOINT newVegas:RightHandMiddle3
										{
											OFFSET -4.596550 0.000000 0.000000
											CHANNELS 3 Xrotation Yrotation Zrotation
											End Site
											{
												OFFSET -0.057701 4.578827 0.399218
											}
										}
									}
								}
								JOINT newVegas:RightHandRing1
								{
									OFFSET -17.732719 0.121887 -4.201567
									CHANNELS 3 Xrotation Yrotation Zrotation
									JOINT newVegas:RightHandRing2
									{
										OFFSET -2.733170 0.000000 0.000000
										CHANNELS 3 Xrotation Yrotation Zrotation
										JOINT newVegas:RightHandRing3
										{
											OFFSET -3.178268 0.000000 0.000000
											CHANNELS 3 Xrotation Yrotation Zrotation
											End Site
											{
												OFFSET -0.119102 3.170624 0.185394
											}
										}
									}
								}
								JOINT newVegas:RightHandPinky1
								{
									OFFSET -15.989624 -0.606689 -7.535461
									CHANNELS 3 Xrotation Yrotation Zrotation
									JOINT newVegas:RightHandPinky2
									{
										OFFSET -2.538986 0.000000 0.000000
										CHANNELS 3 Xrotation Yrotation Zrotation
										JOINT newVegas:RightHandPinky3
										{
											OFFSET -2.593102 0.000000 0.000000
											CHANNELS 3 Xrotation Yrotation Zrotation
											End Site
											{
												OFFSET 0.150902 2.584198 0.152708
											}
										}
									}
								}
							}
							JOINT newVegas:Right_CapeC
							{
								OFFSET -15.715958 -8.608795 -6.935905
								CHANNELS 3 Xrotation Yrotation Zrotation
								JOINT newVegas:Right_CapeC1
								{
									OFFSET 0.000000 -8.688499 0.000000
									CHANNELS 3 Xrotation Yrotation Zrotation
									End Site
									{
										OFFSET 0.000000 8.688499 0.000000
									}
								}
							}
							JOINT newVegas:Right_Sleeve
							{
								OFFSET -0.267448 -0.649994 0.577675
								CHANNELS 3 Xrotation Yrotation Zrotation
								End Site
								{
									OFFSET 0.000000 15.991302 0.000000
								}
							}
						}
						JOINT newVegas:Right_CapeA
						{
							OFFSET -5.115540 -8.608795 -10.395824
							CHANNELS 3 Xrotation Yrotation Zrotation
							JOINT newVegas:Right_CapeA1
							{
								OFFSET 0.000000 -8.688499 0.000000
								CHANNELS 3 Xrotation Yrotation Zrotation
								End Site
								{
									OFFSET 0.000000 8.688499 0.000000
								}
							}
						}
						JOINT newVegas:Right_CapeB
						{
							OFFSET -26.118187 -8.608795 -7.079266
							CHANNELS 3 Xrotation Yrotation Zrotation
							JOINT newVegas:Right_CapeB1
							{
								OFFSET 0.000000 -8.688499 0.000000
								CHANNELS 3 Xrotation Yrotation Zrotation
								End Site
								{
									OFFSET 0.000000 8.688499 0.000000
								}
							}
						}
					}
				}
				JOINT newVegas:Left_Collar
				{
					OFFSET 18.625099 8.655502 8.828100
					CHANNELS 3 Xrotation Yrotation Zrotation
					JOINT newVegas:Left_Collar1
					{
						OFFSET 14.783401 10.540405 -1.259500
						CHANNELS 3 Xrotation Yrotation Zrotation
						End Site
						{
							OFFSET 0.000000 18.199875 0.000000
						}
					}
				}
				JOINT newVegas:Collar_Back
				{
					OFFSET 0.000000 15.630707 -20.132601
					CHANNELS 3 Xrotation Yrotation Zrotation
					End Site
					{
						OFFSET 0.000000 22.523010 0.000000
					}
				}
				JOINT newVegas:Left_Peck
				{
					OFFSET 17.239599 -5.132599 25.482599
					CHANNELS 3 Xrotation Yrotation Zrotation
					End Site
					{
						OFFSET 0.000000 22.523010 0.000000
					}
				}
				JOINT newVegas:Right_Peck
				{
					OFFSET -17.239599 -5.132202 25.482599
					CHANNELS 3 Xrotation Yrotation Zrotation
					End Site
					{
						OFFSET 0.000000 22.523010 0.000000
					}
				}
				JOINT newVegas:Right_Collar
				{
					OFFSET -18.625099 8.655792 8.828100
					CHANNELS 3 Xrotation Yrotation Zrotation
					JOINT newVegas:Right_Collar1
					{
						OFFSET -14.783401 10.539993 -1.259500
						CHANNELS 3 Xrotation Yrotation Zrotation
						End Site
						{
							OFFSET 0.000000 18.199631 0.000000
						}
					}
				}
			}
		}
		JOINT newVegas:Belly
		{
			OFFSET 0.000000 -6.540398 9.014299
			CHANNELS 3 Xrotation Yrotation Zrotation
			End Site
			{
				OFFSET 0.000000 11.566666 0.000000
			}
		}
	}
	JOINT newVegas:ElvisFacialAnim_Joint
	{
		OFFSET 1.000000 -95.330101 -8.825800
		CHANNELS 3 Xrotation Yrotation Zrotation
		End Site
		{
			OFFSET 0.000000 35.315800 0.000000
		}
	}
}
MOTION
Frames: 4
Frame Time: 0.033333
0.432376 89.020569 3.032762 -1.500789 6.264451 2.693932 -0.000000 0.000000 -0.000000 -26.897794 -8.346867 12.986415 27.874342 -0.962500 -1.107925 0.126507 -2.765195 -16.824129 -0.000000 0.000000 0.000000 0.000000 -0.000000 0.000000 -18.968415 -11.346706 -22.694576 44.801024 2.119622 1.788278 -22.724642 -9.831691 12.617448 0.000000 -0.000000 0.000000 -0.000002 -0.000000 -0.000001 5.550163 -0.029706 -0.187660 11.100324 0.009741 -0.734989 11.100324 0.009740 -0.734989 -2.094295 -0.354150 -0.652399 -2.094301 -0.354149 -0.652400 0.000001 0.000000 -0.000000 -2.094278 -0.354146 -0.652401 -2.094286 -0.354157 -0.652398 -0.000000 0.000000 -0.000000 0.000001 0.000000 -0.000000 9.458432 -6.444342 -14.996457 -9.688679 10.601567 -35.774495 0.001822 -55.255930 0.168421 23.869184 -12.509995 16.445992 7.350860 -14.484239 -10.934822 -1.067068 0.182868 1.946084 -0.000001 0.000002 -0.000006 5.776126 -9.584529 -10.641321 0.033763 0.666537 -10.636464 0.000001 -0.000002 -0.000002 1.641881 7.127195 -4.239650 -0.187956 -0.789342 -15.969016 0.000001 -0.000002 0.000002 1.677308 11.039952 -8.046070 -0.183065 -2.876881 -23.912139 0.000002 -0.000004 0.000001 0.734592 28.047549 -16.218766 -0.849527 -6.142191 -29.148249 0.000003 0.000000 0.000001 0.000001 -0.000003 0.000003 0.000001 -0.000003 0.000003 0.000000 -0.000002 0.000002 -0.000002 0.000002 -0.000001 -0.000003 0.000002 -0.000004 -0.000002 0.000002 -0.000001 -0.000002 0.000002 -0.000000 -3.413138 0.044912 -0.357069 -8.521084 -11.378042 60.672605 -0.093796 56.128879 -0.117886 33.242295 -12.830434 -17.731916 -4.978388 12.391667 9.407264 -1.210153 -0.220434 -2.121011 -0.000001 0.000000 -0.000002 10.258621 13.576567 6.067473 0.012525 -0.647885 4.076586 0.000000 -0.000001 0.000003 -1.738474 -1.670982 3.393798 -0.252707 0.798098 21.448261 -0.000004 -0.000000 0.000000 -0.824261 -13.700966 18.348846 -0.242211 2.213623 16.221187 -0.000002 0.000001 0.000003 -4.380749 -23.900591 30.060308 -0.233911 5.125293 12.870300 -0.000001 0.000003 0.000002 -0.000001 0.000003 0.000001 -0.000001 0.000002 -0.000001 -0.000001 0.000002 0.000003 -0.000001 0.000001 -0.000000 -0.000001 0.000001 0.000002 -0.000001 0.000001 -0.000000 -0.000000 0.000001 0.000003 -0.000000 -0.000000 0.000000 -0.000000 -0.000000 0.000000 -0.000000 -0.000000 0.000000 -0.000000 -0.000000 0.000000 -0.000000 -0.000000 0.000000 -0.000000 -0.000000 0.000000 -0.000000 -0.000000 0.000000 -0.000000 0.000000 -0.000000 -0.000000 0.000000 -0.000000 
0.437980 88.938942 3.037175 -1.521736 6.251058 2.740112 0.000000 -0.000000 0.000000 -27.108939 -8.240501 12.975120 28.276500 -0.974604 -1.122978 -0.064034 -2.875980 -16.795809 -0.000000 0.000000 0.000000 0.000000 -0.000000 0.000000 -19.153032 -11.352278 -22.868173 45.159937 2.179620 1.804832 -22.905996 -9.766145 12.625517 -0.000000 -0.000002 0.000000 0.000001 -0.000001 -0.000001 5.558261 -0.022669 -0.177948 11.116604 0.024601 -0.720861 11.116610 0.024603 -0.720861 -2.081635 -0.353049 -0.673172 -2.081628 -0.353046 -0.673173 0.000001 0.000000 -0.000000 -2.081694 -0.353047 -0.673173 -2.081485 -0.353046 -0.673172 -0.000001 0.000000 -0.000000 0.000001 0.000000 -0.000000 9.465613 -6.453713 -14.920548 -9.577405 10.345384 -35.689869 0.001071 -55.186935 0.168172 24.488344 -12.441313 16.876134 8.156238 -13.650252 -11.310491 -1.067071 0.182868 1.946078 0.000002 -0.000003 0.000002 5.776127 -9.584528 -10.641323 0.033760 0.666534 -10.636461 -0.000001 0.000001 -0.000001 1.641885 7.127194 -4.239651 -0.187955 -0.789338 -15.969018 -0.000000 -0.000003 0.000001 1.677313 11.039948 -8.046070 -0.183064 -2.876881 -23.912137 0.000003 -0.000001 -0.000001 0.734591 28.047549 -16.218767 -0.849525 -6.142193 -29.148246 0.000003 -0.000005 0.000001 0.000002 0.000001 0.000006 0.000002 0.000001 0.000006 0.000001 0.000001 0.000006 -0.000002 -0.000002 -0.000003 -0.000003 -0.000002 -0.000004 -0.000002 -0.000002 -0.000003 -0.000002 -0.000003 -0.000002 -3.413916 0.065881 -0.353328 -8.734028 -11.488188 60.648064 -0.094436 55.937456 -0.117463 34.071364 -12.760241 -17.790963 -4.978386 12.391678 9.407263 -1.210153 -0.220437 -2.121008 0.000001 0.000002 -0.000004 10.258621 13.576568 6.067472 0.012525 -0.647884 4.076582 -0.000002 0.000001 0.000004 -1.738472 -1.670973 3.393798 -0.252706 0.798094 21.448264 -0.000002 -0.000002 0.000001 -0.824258 -13.700958 18.348851 -0.242211 2.213619 16.221190 -0.000000 0.000001 -0.000000 -4.380754 -23.900586 30.060311 -0.233911 5.125289 12.870305 -0.000000 0.000002 -0.000002 -0.000002 0.000003 -0.000001 -0.000002 -0.000002 0.000000 -0.000002 0.000003 -0.000001 -0.000000 0.000002 -0.000001 -0.000000 0.000002 0.000001 -0.000000 0.000002 -0.000001 0.000000 0.000002 0.000003 0.000001 -0.000000 0.000000 0.000001 -0.000000 0.000000 0.000001 -0.000000 0.000000 0.000001 -0.000000 0.000000 0.000001 -0.000000 0.000000 0.000001 -0.000000 0.000000 0.000001 -0.000000 0.000000 -0.000001 -0.000000 -0.000000 0.000000 -0.000000 0.000000 
0.449234 88.829193 3.031948 -1.602331 6.158312 2.843770 0.000000 -0.000001 0.000000 -27.322819 -7.976670 12.960621 28.811514 -0.985347 -1.142188 -0.331980 -3.052370 -16.737387 -0.000000 0.000000 -0.000000 0.000000 0.000000 -0.000000 -19.428823 -11.308861 -23.168138 45.706591 2.284730 1.830490 -23.149661 -9.630887 12.637480 -0.000000 0.000002 0.000000 0.000000 0.000001 -0.000000 5.573298 -0.007123 -0.169694 11.146887 0.055911 -0.715141 11.146889 0.055909 -0.715139 -2.059593 -0.339017 -0.725613 -2.059609 -0.339016 -0.725613 -0.000000 0.000001 -0.000000 -2.059596 -0.339018 -0.725614 -2.059602 -0.339018 -0.725612 -0.000001 0.000000 0.000000 -0.000000 0.000001 -0.000000 9.481317 -6.476679 -14.752133 -9.293271 9.774971 -35.530087 -0.003051 -54.583990 0.165455 24.880743 -12.265994 17.412205 9.669702 -12.131022 -11.834377 -1.067069 0.182868 1.946081 0.000003 -0.000001 -0.000001 5.776126 -9.584530 -10.641322 0.033762 0.666534 -10.636467 0.000001 -0.000000 0.000001 1.641882 7.127193 -4.239653 -0.187951 -0.789342 -15.969013 -0.000002 0.000002 0.000001 1.677309 11.039951 -8.046070 -0.183062 -2.876885 -23.912135 0.000005 -0.000001 0.000000 0.734591 28.047545 -16.218767 -0.849528 -6.142194 -29.148252 0.000001 -0.000003 -0.000001 0.000001 -0.000002 -0.000001 0.000001 -0.000002 -0.000001 0.000000 -0.000001 -0.000002 -0.000001 -0.000001 0.000005 -0.000001 -0.000002 0.000005 -0.000001 -0.000001 0.000005 -0.000001 -0.000001 0.000005 -3.414610 0.088638 -0.329359 -8.972369 -11.587791 60.520011 -0.094721 55.711237 -0.117635 35.691311 -12.619768 -17.817479 -4.978387 12.391669 9.407267 -1.210152 -0.220439 -2.121008 0.000000 0.000000 0.000001 10.258624 13.576568 6.067476 0.012525 -0.647885 4.076585 0.000002 -0.000004 0.000001 -1.738472 -1.670981 3.393801 -0.252705 0.798093 21.448261 -0.000002 -0.000001 -0.000000 -0.824260 -13.700963 18.348847 -0.242209 2.213626 16.221192 0.000002 -0.000001 -0.000001 -4.380753 -23.900592 30.060308 -0.233910 5.125291 12.870301 0.000001 -0.000000 0.000002 -0.000001 0.000003 -0.000001 -0.000001 0.000002 -0.000001 -0.000001 0.000002 -0.000001 0.000000 -0.000001 0.000000 0.000000 0.000000 0.000002 0.000000 -0.000001 0.000000 0.000001 0.000000 0.000004 0.000003 0.000000 -0.000000 0.000003 0.000000 -0.000000 0.000003 0.000000 -0.000000 0.000003 0.000000 -0.000000 0.000003 0.000000 -0.000000 0.000003 0.000000 -0.000000 0.000003 0.000000 -0.000000 -0.000000 0.000000 0.000000 0.000000 -0.000001 0.000000 
0.483392 88.680855 3.008009 -1.738514 5.849669 3.044687 0.000000 0.000001 -0.000000 -27.527085 -7.403084 12.952690 29.534281 -0.987720 -1.166682 -0.738876 -3.308133 -16.622578 -0.000000 -0.000000 -0.000000 -0.000000 -0.000000 -0.000001 -19.936815 -11.148960 -23.703569 46.532142 2.470538 1.870235 -23.435933 -9.316373 12.666165 0.000000 -0.000002 0.000000 0.000000 0.000001 -0.000001 5.598610 0.024117 -0.168893 11.197915 0.116512 -0.734183 11.197922 0.116512 -0.734184 -2.046199 -0.301626 -0.794509 -2.046193 -0.301625 -0.794508 0.000002 -0.000000 0.000000 -2.046201 -0.301625 -0.794509 -2.046188 -0.301626 -0.794509 0.000001 -0.000000 0.000000 0.000002 -0.000000 0.000000 9.505574 -6.503789 -14.494988 -8.726396 8.805384 -35.226154 -0.011252 -53.301471 0.159894 25.108798 -11.883711 18.055591 11.257900 -10.569147 -12.338998 -1.067068 0.182869 1.946079 -0.000000 -0.000002 0.000002 5.776128 -9.584535 -10.641320 0.033761 0.666536 -10.636465 -0.000001 -0.000001 -0.000001 1.641885 7.127188 -4.239650 -0.187953 -0.789342 -15.969020 0.000001 0.000001 0.000001 1.677310 11.039946 -8.046068 -0.183066 -2.876881 -23.912139 0.000002 -0.000001 0.000000 0.734592 28.047547 -16.218767 -0.849530 -6.142189 -29.148249 -0.000000 -0.000002 -0.000000 0.000001 -0.000001 -0.000000 0.000001 -0.000001 -0.000000 0.000000 -0.000001 -0.000000 0.000002 0.000000 -0.000002 0.000001 -0.000001 -0.000003 0.000002 0.000000 -0.000002 0.000001 -0.000001 -0.000001 -3.415526 0.123452 -0.277887 -9.261839 -11.628438 60.237972 -0.093862 55.572523 -0.119195 37.726505 -12.428094 -17.769314 -4.978384 12.391677 9.407261 -1.210154 -0.220438 -2.121006 -0.000002 0.000003 -0.000004 10.258621 13.576565 6.067473 0.012526 -0.647882 4.076580 -0.000002 -0.000000 0.000004 -1.738472 -1.670980 3.393799 -0.252706 0.798101 21.448259 0.000001 -0.000000 -0.000003 -0.824258 -13.700965 18.348844 -0.242209 2.213625 16.221185 -0.000002 0.000001 0.000001 -4.380750 -23.900594 30.060308 -0.233910 5.125293 12.870297 -0.000002 -0.000002 0.000002 0.000000 0.000003 0.000001 0.000000 0.000001 0.000002 0.000000 0.000003 0.000000 0.000000 -0.000001 -0.000002 0.000000 -0.000002 -0.000000 0.000000 -0.000001 -0.000002 0.000000 -0.000002 0.000002 0.000000 -0.000000 -0.000000 0.000000 -0.000000 -0.000000 0.000000 -0.000000 -0.000000 0.000000 -0.000000 -0.000000 0.000000 -0.000000 -0.000000 0.000000 -0.000000 -0.000000 0.000000 -0.000000 -0.000000 0.000000 0.000001 -0.000000 0.000000 0.000001 -0.000000 
